<?xml version="1.0" encoding="utf-8"?>
<!-- Generator: Adobe Illustrator 19.0.0, SVG Export Plug-In . SVG Version: 6.00 Build 0)  -->
<svg version="1.1" id="Layer_1" xmlns="http://www.w3.org/2000/svg" xmlns:xlink="http://www.w3.org/1999/xlink" x="0px" y="0px"
	 viewBox="0 0 376 339" style="enable-background:new 0 0 376 339;" xml:space="preserve">
<style type="text/css">
	.st0{fill:none;stroke:#000000;stroke-width:6;stroke-miterlimit:10;}
	.st1{fill:#15D11E;}
</style>
<g id="XMLID_38_">
	<g id="XMLID_36_">
		<path id="XMLID_1_" class="st0" d="M303,247c0,35.3-28.7,64-64,64H108c-35.3,0-64-28.7-64-64V116c0-35.3,28.7-64,64-64h131
			c35.3,0,64,28.7,64,64V247z"/>
		<g id="XMLID_12_">
			<path id="XMLID_25_" class="st1" d="M332,47.2c-7,13-16.3,23.6-24.7,35.1c-18.7,25.5-38.1,50.5-55.3,77
				c-15.2,23.5-28.8,48-38.7,74.3c-5.7,15.2-10.6,30.7-12.5,46.8c-1.8,15-20.3,18.3-29.5,10.7c-1.2-1-2.3-2.2-3.4-3.3
				c-24.2-24-48.2-48.1-72.6-71.9c-8.1-7.9-17-15-25.7-22.3c-3.7-3.1-7.4-6.4-8.4-11.1c0-1.6,0-3.2,0-4.8c2-8.3,7.7-13.6,16.2-15.5
				c6.4-1.4,11.9,0.7,16.8,4.8c18.2,14.8,35.4,30.7,52,47.2c8.1,8.1,16.2,16.2,24.2,24.3c0.6,0.6,1.2,1.2,2.1,2c0.5-1.5,1-2.7,1.3-4
				c8.7-28.2,21.8-54.3,37-79.4c19.2-31.8,41.6-61.3,63.7-91.1c7.3-9.8,14.6-19.6,21.7-29.6c9.3-13,24.6-9.8,31.3-2.2
				c1.9,2.2,2.6,5.1,4.6,7.6C332,43.7,332,45.5,332,47.2z"/>
		</g>
	</g>
</g>
</svg>
