<?xml version="1.0" encoding="utf-8"?>
<!-- Generator: Adobe Illustrator 19.0.0, SVG Export Plug-In . SVG Version: 6.00 Build 0)  -->
<svg version="1.1" id="Layer_1" xmlns="http://www.w3.org/2000/svg" xmlns:xlink="http://www.w3.org/1999/xlink" x="0px" y="0px"
	 viewBox="307 -92.1 856 339" style="enable-background:new 307 -92.1 856 339;" xml:space="preserve">
<style type="text/css">
	.st0{enable-background:new    ;}
	.st1{fill:none;}
	.st2{opacity:0.49;}
	.st3{fill:#FFFFFF;}
	.st4{fill:none;stroke:#717171;stroke-miterlimit:1;}
	.st5{opacity:0.58;}
	.st6{fill:none;stroke:#000000;stroke-width:6;stroke-miterlimit:10;}
	.st7{fill:#15D11E;}
</style>
<g id="XMLID_38_">
	<g id="XMLID_37_">
		<g class="st0">
			<path d="M665.3,4.3c6-1,14-1.9,24-1.9c12.4,0,21.5,2.9,27.2,8.1c5.3,4.6,8.5,11.7,8.5,20.3c0,8.8-2.6,15.7-7.5,20.7
				c-6.6,7.1-17.4,10.7-29.7,10.7c-3.7,0-7.2-0.1-10.1-0.9v38.9h-12.5V4.3z M677.8,51.1c2.7,0.7,6.2,1,10.4,1
				c15.1,0,24.3-7.3,24.3-20.7c0-12.8-9.1-19-22.9-19c-5.5,0-9.6,0.4-11.8,1V51.1z"/>
			<path d="M739.1,52.3c0-8.2-0.1-15.3-0.6-21.7h11.1l0.4,13.7h0.6c3.2-9.4,10.8-15.3,19.3-15.3c1.4,0,2.4,0.1,3.6,0.4v12
				c-1.3-0.3-2.6-0.4-4.3-0.4c-8.9,0-15.3,6.8-17,16.3c-0.3,1.7-0.6,3.7-0.6,5.9v37.2h-12.5V52.3z"/>
			<path d="M847.9,64.8c0,25.8-17.9,37-34.7,37c-18.9,0-33.4-13.8-33.4-35.9c0-23.3,15.3-37,34.6-37
				C834.3,28.9,847.9,43.5,847.9,64.8z M792.6,65.5c0,15.3,8.8,26.8,21.2,26.8c12.1,0,21.2-11.4,21.2-27.1
				c0-11.8-5.9-26.8-20.9-26.8S792.6,52.3,792.6,65.5z"/>
			<path d="M864.3,4.3c6-1,14-1.9,24-1.9c12.4,0,21.5,2.9,27.2,8.1c5.3,4.6,8.5,11.7,8.5,20.3c0,8.8-2.6,15.7-7.5,20.7
				c-6.6,7.1-17.4,10.7-29.7,10.7c-3.7,0-7.2-0.1-10.1-0.9v38.9h-12.5V4.3z M876.8,51.1c2.7,0.7,6.2,1,10.4,1
				c15.1,0,24.3-7.3,24.3-20.7c0-12.8-9.1-19-22.9-19c-5.5,0-9.6,0.4-11.8,1V51.1z"/>
			<path d="M939.7-2h12.7v102.2h-12.7V-2z"/>
			<path d="M1012.3,100.2l-1-8.8h-0.4c-3.9,5.5-11.4,10.4-21.3,10.4c-14.1,0-21.3-9.9-21.3-20c0-16.8,15-26.1,41.9-25.9v-1.4
				c0-5.8-1.6-16.1-15.8-16.1c-6.5,0-13.2,2-18.1,5.2l-2.9-8.4c5.8-3.7,14.1-6.2,22.9-6.2c21.3,0,26.5,14.5,26.5,28.5v26.1
				c0,6,0.3,12,1.2,16.7H1012.3z M1010.4,64.6c-13.8-0.3-29.5,2.2-29.5,15.7c0,8.2,5.5,12.1,12,12.1c9.1,0,14.8-5.8,16.8-11.7
				c0.4-1.3,0.7-2.7,0.7-4V64.6z"/>
			<path d="M1043.1,49.4c0-7.2-0.1-13.1-0.6-18.9h11.2l0.7,11.5h0.3c3.5-6.6,11.5-13.1,23-13.1c9.6,0,24.6,5.8,24.6,29.7v41.6h-12.7
				V60c0-11.2-4.2-20.6-16.1-20.6c-8.4,0-14.8,5.9-17,13c-0.6,1.6-0.9,3.7-0.9,5.9v41.9h-12.7V49.4z"/>
		</g>
		<g id="XMLID_35_">
			<g class="st0">
				<path d="M773.3,140.8h11.7c1.2,0,2.3,0.2,3.2,0.5s1.8,0.8,2.5,1.5c0.7,0.7,1.2,1.4,1.6,2.4c0.4,0.9,0.6,2,0.6,3.2
					c0,1.2-0.2,2.2-0.6,3.2c-0.4,0.9-0.9,1.7-1.6,2.4c-0.7,0.7-1.5,1.1-2.5,1.5s-2,0.5-3.2,0.5h-9.2v11.3h-2.5V140.8z M775.8,153.7
					h8.7c1.8,0,3.2-0.4,4.3-1.3c1.1-0.9,1.6-2.2,1.6-4.1c0-1.8-0.5-3.2-1.6-4.1c-1.1-0.9-2.5-1.3-4.3-1.3h-8.7V153.7z"/>
				<path d="M796.2,140.8h2.3v26.4h-2.3V140.8z"/>
				<path d="M802.8,154c0.1-2.2,0.9-3.9,2.3-4.9c1.4-1,3.2-1.5,5.4-1.5c0.8,0,1.7,0.1,2.5,0.2s1.6,0.5,2.3,0.9s1.2,1.1,1.6,1.9
					c0.4,0.8,0.6,1.8,0.6,3.1v10.1c0,0.9,0.5,1.4,1.4,1.4c0.2,0,0.5,0,0.7-0.1v2c-0.3,0-0.5,0.1-0.7,0.1c-0.2,0-0.5,0-0.8,0
					c-0.6,0-1.1-0.1-1.4-0.2s-0.6-0.4-0.8-0.7c-0.2-0.3-0.3-0.6-0.4-1.1c-0.1-0.4-0.1-0.9-0.1-1.4h-0.1c-0.4,0.6-0.8,1.2-1.3,1.6
					c-0.4,0.5-0.9,0.9-1.4,1.2s-1.1,0.6-1.8,0.8s-1.5,0.3-2.4,0.3c-0.9,0-1.7-0.1-2.5-0.3c-0.8-0.2-1.5-0.6-2-1
					c-0.6-0.5-1-1-1.4-1.7s-0.5-1.5-0.5-2.5c0-1.3,0.3-2.4,0.9-3.1s1.4-1.3,2.3-1.7c1-0.4,2.1-0.7,3.3-0.8c1.2-0.2,2.5-0.3,3.7-0.5
					c0.5,0,0.9-0.1,1.3-0.2c0.4-0.1,0.7-0.2,0.9-0.4c0.2-0.2,0.4-0.4,0.6-0.7s0.2-0.7,0.2-1.3c0-0.8-0.1-1.4-0.4-1.9
					s-0.6-0.9-1.1-1.2c-0.5-0.3-1-0.5-1.6-0.6c-0.6-0.1-1.3-0.2-1.9-0.2c-1.5,0-2.7,0.4-3.6,1.1c-1,0.7-1.5,1.8-1.5,3.4H802.8z
					 M815.2,156.8L815.2,156.8c-0.2,0.3-0.5,0.5-0.9,0.6c-0.4,0.1-0.8,0.2-1.1,0.3c-1,0.2-2,0.3-3.1,0.5c-1,0.1-2,0.3-2.9,0.6
					c-0.9,0.3-1.6,0.7-2.1,1.2c-0.6,0.5-0.8,1.2-0.8,2.2c0,0.6,0.1,1.1,0.4,1.6c0.2,0.5,0.5,0.9,0.9,1.2c0.4,0.3,0.9,0.6,1.4,0.8
					c0.5,0.2,1,0.3,1.6,0.3c0.9,0,1.7-0.1,2.6-0.4c0.8-0.3,1.5-0.7,2.1-1.2c0.6-0.5,1.1-1.1,1.4-1.9s0.5-1.6,0.5-2.5V156.8z"/>
				<path d="M822.2,148.1h2.3v3.3h0.1c0.2-0.6,0.5-1.1,0.9-1.6c0.4-0.5,0.9-0.9,1.4-1.2c0.5-0.3,1.1-0.6,1.8-0.8
					c0.6-0.2,1.3-0.3,2-0.3c1.3,0,2.4,0.2,3.3,0.5c0.9,0.3,1.6,0.8,2.2,1.5c0.5,0.6,0.9,1.4,1.1,2.3c0.2,0.9,0.3,1.9,0.3,3.1v12.3
					h-2.3v-11.9c0-0.8-0.1-1.6-0.2-2.3c-0.1-0.7-0.4-1.3-0.8-1.8c-0.4-0.5-0.9-0.9-1.5-1.2s-1.4-0.4-2.3-0.4s-1.8,0.2-2.5,0.5
					s-1.4,0.8-1.9,1.4c-0.5,0.6-0.9,1.3-1.2,2.1s-0.4,1.7-0.4,2.6v11.1h-2.3V148.1z"/>
				<path d="M852.4,140.8h2.3v26.4h-2.3V140.8z"/>
				<path d="M859.3,140.8h2.3v3.7h-2.3V140.8z M859.3,148.1h2.3v19.1h-2.3V148.1z"/>
				<path d="M866.1,140.8h2.3v16.6l10.6-9.3h3.1l-8.1,7.1l8.7,12h-2.9l-7.5-10.4l-3.8,3.1v7.3h-2.3V140.8z"/>
				<path d="M885.9,158.3c0,0.9,0.1,1.7,0.4,2.6c0.2,0.9,0.6,1.7,1.1,2.4s1.1,1.3,1.9,1.8c0.8,0.5,1.8,0.7,2.9,0.7
					c1.7,0,3-0.4,4-1.4c1-0.9,1.6-2.1,2-3.5h2.3c-0.5,2.2-1.4,3.9-2.7,5.1c-1.3,1.2-3.2,1.8-5.6,1.8c-1.5,0-2.8-0.3-3.9-0.8
					c-1.1-0.5-2-1.3-2.7-2.2c-0.7-0.9-1.2-2-1.5-3.2s-0.5-2.5-0.5-3.9c0-1.3,0.2-2.5,0.5-3.7c0.3-1.2,0.8-2.3,1.5-3.2
					c0.7-0.9,1.6-1.7,2.7-2.3c1.1-0.6,2.4-0.9,3.9-0.9s2.8,0.3,3.9,0.9s2,1.4,2.6,2.4c0.7,1,1.2,2.1,1.5,3.4
					c0.3,1.3,0.4,2.6,0.4,3.9H885.9z M898.3,156.3c0-0.9-0.2-1.7-0.5-2.6c-0.3-0.8-0.7-1.5-1.2-2.2c-0.5-0.6-1.1-1.1-1.9-1.5
					c-0.7-0.4-1.6-0.6-2.5-0.6c-1,0-1.8,0.2-2.6,0.6c-0.7,0.4-1.4,0.9-1.9,1.5c-0.5,0.6-0.9,1.4-1.2,2.2s-0.5,1.7-0.6,2.5H898.3z"/>
				<path d="M913.8,154c0.1-2.2,0.9-3.9,2.3-4.9c1.4-1,3.2-1.5,5.4-1.5c0.8,0,1.7,0.1,2.5,0.2c0.8,0.2,1.6,0.5,2.3,0.9
					s1.2,1.1,1.6,1.9c0.4,0.8,0.6,1.8,0.6,3.1v10.1c0,0.9,0.5,1.4,1.4,1.4c0.2,0,0.5,0,0.7-0.1v2c-0.3,0-0.5,0.1-0.7,0.1
					c-0.2,0-0.5,0-0.8,0c-0.6,0-1.1-0.1-1.4-0.2c-0.4-0.2-0.6-0.4-0.8-0.7s-0.3-0.6-0.4-1.1s-0.1-0.9-0.1-1.4h-0.1
					c-0.4,0.6-0.8,1.2-1.3,1.6c-0.4,0.5-0.9,0.9-1.4,1.2s-1.1,0.6-1.8,0.8c-0.7,0.2-1.5,0.3-2.4,0.3c-0.9,0-1.7-0.1-2.5-0.3
					c-0.8-0.2-1.5-0.6-2-1c-0.6-0.5-1-1-1.4-1.7s-0.5-1.5-0.5-2.5c0-1.3,0.3-2.4,0.9-3.1s1.4-1.3,2.3-1.7c1-0.4,2.1-0.7,3.3-0.8
					c1.2-0.2,2.5-0.3,3.7-0.5c0.5,0,0.9-0.1,1.3-0.2c0.4-0.1,0.7-0.2,0.9-0.4c0.2-0.2,0.4-0.4,0.6-0.7c0.1-0.3,0.2-0.7,0.2-1.3
					c0-0.8-0.1-1.4-0.4-1.9c-0.3-0.5-0.6-0.9-1.1-1.2c-0.5-0.3-1-0.5-1.6-0.6c-0.6-0.1-1.3-0.2-1.9-0.2c-1.5,0-2.7,0.4-3.6,1.1
					s-1.4,1.8-1.5,3.4H913.8z M926.3,156.8L926.3,156.8c-0.2,0.3-0.5,0.5-0.9,0.6c-0.4,0.1-0.8,0.2-1.1,0.3c-1,0.2-2,0.3-3.1,0.5
					c-1,0.1-2,0.3-2.9,0.6s-1.6,0.7-2.1,1.2c-0.6,0.5-0.8,1.2-0.8,2.2c0,0.6,0.1,1.1,0.4,1.6c0.2,0.5,0.5,0.9,0.9,1.2
					s0.9,0.6,1.4,0.8c0.5,0.2,1,0.3,1.6,0.3c0.9,0,1.7-0.1,2.6-0.4c0.8-0.3,1.5-0.7,2.1-1.2c0.6-0.5,1.1-1.1,1.4-1.9
					c0.4-0.7,0.5-1.6,0.5-2.5V156.8z"/>
				<path d="M944,140.8h11.7c1.2,0,2.3,0.2,3.2,0.5s1.8,0.8,2.5,1.5c0.7,0.7,1.2,1.4,1.6,2.4s0.6,2,0.6,3.2c0,1.2-0.2,2.2-0.6,3.2
					c-0.4,0.9-0.9,1.7-1.6,2.4c-0.7,0.7-1.5,1.1-2.5,1.5s-2,0.5-3.2,0.5h-9.2v11.3H944V140.8z M946.5,153.7h8.7
					c1.8,0,3.2-0.4,4.3-1.3c1.1-0.9,1.6-2.2,1.6-4.1c0-1.8-0.5-3.2-1.6-4.1c-1.1-0.9-2.5-1.3-4.3-1.3h-8.7V153.7z"/>
				<path d="M966.9,148.1h2.1v4.5h0.1c0.6-1.6,1.5-2.8,2.8-3.6c1.2-0.8,2.7-1.2,4.5-1.1v2.3c-1.1,0-2,0.1-2.9,0.4s-1.6,0.8-2.2,1.4
					c-0.6,0.6-1.1,1.4-1.5,2.2c-0.3,0.9-0.5,1.8-0.5,2.8v10.2h-2.3V148.1z"/>
				<path d="M985.9,147.6c1.5,0,2.7,0.3,3.9,0.8c1.1,0.5,2.1,1.3,2.8,2.2c0.8,0.9,1.3,2,1.7,3.2s0.6,2.5,0.6,3.9
					c0,1.4-0.2,2.7-0.6,3.9s-1,2.3-1.7,3.2c-0.8,0.9-1.7,1.6-2.8,2.2c-1.1,0.5-2.4,0.8-3.9,0.8c-1.5,0-2.7-0.3-3.9-0.8
					c-1.1-0.5-2.1-1.3-2.8-2.2c-0.8-0.9-1.3-2-1.7-3.2s-0.6-2.5-0.6-3.9c0-1.4,0.2-2.7,0.6-3.9s1-2.3,1.7-3.2
					c0.8-0.9,1.7-1.6,2.8-2.2C983.2,147.8,984.5,147.6,985.9,147.6z M985.9,149.5c-1.1,0-2.1,0.2-2.9,0.7c-0.8,0.5-1.5,1.1-2.1,1.9
					s-1,1.6-1.3,2.6c-0.3,1-0.4,2-0.4,3s0.1,2,0.4,3c0.3,1,0.7,1.8,1.3,2.6s1.3,1.4,2.1,1.8c0.8,0.5,1.8,0.7,2.9,0.7
					s2.1-0.2,2.9-0.7c0.8-0.5,1.5-1.1,2.1-1.8c0.6-0.8,1-1.6,1.3-2.6c0.3-1,0.4-2,0.4-3s-0.1-2-0.4-3c-0.3-1-0.7-1.8-1.3-2.6
					c-0.6-0.8-1.3-1.4-2.1-1.9C988,149.8,987,149.5,985.9,149.5z"/>
			</g>
			<g id="XMLID_6_">
				<line id="XMLID_98_" class="st1" x1="1008" y1="155.9" x2="1071" y2="155.9"/>
				<line id="XMLID_97_" class="st1" x1="1008" y1="155.9" x2="1071" y2="155.9"/>
				<line id="XMLID_83_" class="st1" x1="1008" y1="155.9" x2="1071" y2="155.9"/>
				<g id="XMLID_78_" class="st2">
					<path id="XMLID_42_" class="st3" d="M1071.4,156.2c-18.5,0-37,0-55.5,0c-0.4,0-7.4-0.2-7.5,0c0-0.1,4.8,0,5.2,0
						c10.9,0,21.7,0,32.6,0c1.9,0,25.1-0.4,25.1,0.3c0,0.4,0,0.4,0,0c0-0.2,0-0.5,0-0.7v-0.4c-21,0-42,0-63,0v0.4c0,0.2,0,0.5,0,0.7
						v0.4c21,0,42,0,63,0C1071.4,156.9,1071.4,156.2,1071.4,156.2z"/>
				</g>
				<line id="XMLID_77_" class="st4" x1="1008" y1="156.4" x2="1071" y2="156.4"/>
				<g id="XMLID_72_" class="st5">
					<path id="XMLID_41_" d="M1008.4,156.3c21,0,42,0,63,0v-0.1c-21,0-42,0-63,0C1008.4,156.1,1008.4,156.3,1008.4,156.3
						L1008.4,156.3z"/>
				</g>
			</g>
			<g id="XMLID_8_">
				<line id="XMLID_100_" class="st1" x1="695" y1="156.9" x2="758" y2="156.9"/>
				<line id="XMLID_99_" class="st1" x1="695" y1="156.9" x2="758" y2="156.9"/>
				<line id="XMLID_96_" class="st1" x1="695" y1="156.9" x2="758" y2="156.9"/>
				<g id="XMLID_91_" class="st2">
					<path id="XMLID_40_" class="st3" d="M758.4,157.2c-18.5,0-37,0-55.5,0c-0.4,0-7.4-0.2-7.5,0c0-0.1,4.8,0,5.2,0
						c10.9,0,21.7,0,32.6,0c1.9,0,25.1-0.4,25.1,0.3c0,0.4,0,0.4,0,0c0-0.2,0-0.5,0-0.7v-0.4c-21,0-42,0-63,0v0.4c0,0.2,0,0.5,0,0.7
						v0.4c21,0,42,0,63,0C758.4,157.9,758.4,157.2,758.4,157.2z"/>
				</g>
				<line id="XMLID_90_" class="st4" x1="695" y1="157.4" x2="758" y2="157.4"/>
				<g id="XMLID_85_" class="st5">
					<path id="XMLID_39_" d="M695.4,157.3c21,0,42,0,63,0v-0.1c-21,0-42,0-63,0C695.4,157.1,695.4,157.3,695.4,157.3L695.4,157.3z"
						/>
				</g>
			</g>
		</g>
	</g>
	<g id="XMLID_36_">
		<path id="XMLID_4_" class="st6" d="M357.5,155.2v-131c0-35.2,28.8-64,64-64h131c35.2,0,64,28.8,64,64v131c0,35.2-28.8,64-64,64
			h-131C386.3,219.2,357.5,190.4,357.5,155.2z"/>
		<g id="XMLID_12_">
			<path id="XMLID_25_" class="st7" d="M644.5-44.9c-6.3,13-16,23.6-24.5,35.1c-18.7,25.5-38,50.5-55.2,77
				c-15.2,23.5-28.8,48-38.7,74.3c-5.7,15.2-10.6,30.7-12.5,46.8c-1.8,15-20.3,18.3-29.5,10.7c-1.2-1-2.3-2.2-3.4-3.3
				c-24.2-24-48.2-48.1-72.6-71.9c-8.1-7.9-17.1-14.9-25.7-22.3c-3.7-3.1-7-6.4-8.5-11.1c0-1.6,0-3.2,0-4.8
				c2.4-8.3,7.8-13.6,16.2-15.5c6.4-1.4,11.9,0.7,16.9,4.8c18.2,14.8,35.4,30.7,52,47.2c8.1,8.1,16.2,16.2,24.2,24.3
				c0.6,0.6,1.2,1.2,2.1,2c0.5-1.5,1-2.7,1.3-4c8.7-28.2,21.8-54.3,37-79.4c19.2-31.8,41.6-61.3,63.7-91.1
				c7.3-9.8,14.6-19.6,21.7-29.6c9.3-13,24.3-9.8,31-2.2c1.9,2.2,2.9,5.1,4.4,7.6C644.5-48.4,644.5-46.6,644.5-44.9z"/>
		</g>
	</g>
</g>
</svg>
